# xmcd
# Track frame offsets:
# 150
# 19070
# 34907
# 52505
# 69784
# 84424
# 100936
# 119549
# 131787
#
# Disc length: 1957 seconds
# Revision: 0
# Processed by: cddbd v1.5.1PL0 Copyright (c) Steve Scherf et al.
# Submitted via: VisiTrax 2.9.10.228 - For more info visit www.synapsa.com
#
DISCID=6b07a309
DTITLE=Various Artist - Hits Monthly Nashville  PHN0407
DYEAR=1900
DGENRE=Karaoke
TTITLE0=McBride, Martina - How Far
TTITLE1=Clark, Terri - Girls Lie Too
TTITLE2=Proctor, Rachel - Me And Emily
TTITLE3=Black, Clint - Boogie Man, The
TTITLE4=Bates, Jeff - I Wanna Make You Cry
TTITLE5=Emerson Drive - Last One Standing
TTITLE6=Paisley, Brad and Alison - Whiskey Lullaby
TTITLE7=Morgan, Craig - Look At Us
TTITLE8=Willmon, Trent - Beer Man
EXTD=
EXTT0=
EXTT1=
EXTT2=
EXTT3=
EXTT4=
EXTT5=
EXTT6=
EXTT7=
EXTT8=
PLAYORDER=
